<?xml version="1.0" encoding="UTF-8"?>
<svg width="100px" height="101px" viewBox="0 0 100 101" version="1.1" xmlns="http://www.w3.org/2000/svg" xmlns:xlink="http://www.w3.org/1999/xlink" xmlns:sketch="http://www.bohemiancoding.com/sketch/ns">
    <!-- Generator: Sketch 3.3.3 (12081) - http://www.bohemiancoding.com/sketch -->
    <title>btn_behance</title>
    <desc>Created with Sketch.</desc>
    <defs></defs>
    <g id="Welcome" stroke="none" stroke-width="1" fill="none" fill-rule="evenodd" sketch:type="MSPage">
        <g id="Desktop-Copy" sketch:type="MSArtboardGroup" transform="translate(-604.000000, -4191.000000)">
            <g id="btn_behance" sketch:type="MSLayerGroup" transform="translate(604.000000, 4191.000000)">
                <path d="M99.6255814,50.3286822 C99.6255814,77.8379845 77.3248062,100.137984 49.8162791,100.137984 C22.3077519,100.137984 0.00697674419,77.8379845 0.00697674419,50.3286822 C0.00697674419,22.820155 22.3077519,0.519379845 49.8162791,0.519379845 C77.3248062,0.519379845 99.6255814,22.820155 99.6255814,50.3286822" id="Fill-1" fill="#1769FF" sketch:type="MSShapeGroup"></path>
                <path d="M18.2170543,68.4852713 L18.2170543,30.0472868 C18.2170543,29.3620155 33.1465116,29.5697674 34.5248062,29.6271318 C39.3674419,29.8286822 46.148062,29.6906977 48.4697674,34.9821705 C49.6565891,37.6837209 49.9813953,41.3953488 48.6372093,44.0914729 C48.0100775,45.3488372 46.7031008,47.0263566 45.4248062,47.6813953 C46.0224806,47.3744186 49.4565891,52.3736434 49.6751938,52.7379845 C52.1937984,56.9302326 51.1775194,62.5077519 47.6860465,65.6596899 C43.6193798,69.3294574 37.7844961,71.175969 32.3829457,71.3418605 C29.3705426,71.4341085 25.8139535,71.2379845 22.8937984,70.4457364 C22.3751938,70.3054264 18.2170543,69.1186047 18.2170543,68.4852713 L18.2170543,68.4852713 Z M27.5193798,60.7984496 L27.5193798,51.5728682 C27.5193798,51.5728682 41.9317829,50.4682171 42.8899225,54.4751938 C43.848062,58.4813953 40.6976744,63.1147287 27.5193798,60.7984496 L27.5193798,60.7984496 Z M26.744186,45.4232558 L26.744186,37.7356589 C26.744186,37.7356589 40.7937984,36.3550388 41.4031008,40.5364341 C42.0131783,44.7186047 36.0465116,46.824031 26.744186,45.4232558 L26.744186,45.4232558 Z M56.9767442,32.3542636 L56.9767442,38.372093 L74.0310078,38.372093 L74.0310078,33.1232558 L56.9767442,32.3542636 L56.9767442,32.3542636 Z M61.6426357,57.751938 L80.8620155,57.751938 C81.4534884,57.751938 80.6705426,51.9372093 80.5581395,51.272093 C79.7914729,46.7418605 77.3806202,42.7666667 72.6387597,41.7093023 C70.8658915,41.3139535 69.0263566,41.2937984 67.2170543,41.3550388 C64.7767442,41.4379845 62.2883721,41.3488372 59.9550388,42.1852713 C55.6891473,43.7162791 53.8682171,47.4666667 53.9744186,51.8333333 C54.1341085,58.4333333 56.2356589,67.4937984 63.6968992,69.3550388 C68.7410853,70.6139535 76.9790698,70.148062 79.8891473,65.0186047 C80.7813953,63.4472868 81.0124031,61.3992248 80.9976744,59.6186047 C79.5124031,59.3023256 77.9775194,59.4627907 76.4782946,59.5744186 C76.1124031,59.6023256 73.5883721,59.4348837 73.4503876,59.6658915 C73.4503876,59.6658915 67.1705426,70.1550388 61.6426357,57.751938 L61.6426357,57.751938 Z M61.6426357,52.3255814 L73.9426357,52.3255814 C73.9426357,52.3255814 73.624031,46.9914729 68.3976744,46.9914729 C63.1705426,46.9914729 61.6426357,49.2248062 61.6426357,52.3255814 L61.6426357,52.3255814 Z" id="Stroke-2" stroke="#FFFFFF" stroke-width="3" stroke-linecap="round" stroke-linejoin="round" sketch:type="MSShapeGroup"></path>
                <path d="M70.5930233,37.6426357 C70.9511628,36.1155039 69.8542636,34.620155 69.703876,33.0891473 M66.0395349,37.5317829 C66.0147287,36.1364341 65.7302326,34.7573643 65.3736434,33.4224806 M61.3751938,38.3093023 C61.3186047,36.4511628 60.9449612,34.6224806 60.9310078,32.7565891 M40.7186047,65.9620155 C42.6069767,66.2186047 44.5860465,66.3372093 46.4937984,66.5178295 M45.8271318,62.0751938 C47.0403101,62.227907 48.2682171,62.1984496 49.4922481,62.1868217 M46.7155039,57.5217054 C47.7945736,57.4860465 48.8806202,57.5155039 49.9364341,57.744186 M46.7155039,53.1914729 C46.6178295,53.1852713 45.9232558,53.255814 46.3310078,53.1689922 C47.496124,53.0643411 48.6612403,52.9713178 49.8248062,52.8581395 M44.6054264,44.4178295 C45.7085271,44.2968992 46.8705426,44.2418605 47.9372093,44.0844961 M45.7162791,40.5302326 C46.8054264,40.3697674 47.9131783,40.2589147 48.9372093,39.8643411 M45.7162791,35.7550388 C46.3868217,35.9356589 47.1015504,35.855814 47.7147287,35.5325581 M77.5899225,54.7457364 C78.5007752,54.5736434 79.4372093,54.4992248 80.3658915,54.524031 M76.8124031,50.8581395 C77.6085271,50.9790698 78.4387597,51.0170543 79.2550388,50.9697674 M76.1457364,47.5271318 C76.7496124,47.503876 77.3496124,47.3906977 77.9224806,47.1937984 M78.255814,62.7418605 C78.8496124,62.8193798 79.4457364,62.8937984 80.0325581,62.9643411 M76.4790698,65.0744186 C77.4527132,65.3550388 78.4627907,65.4387597 79.4775194,65.4077519 M73.3689922,67.0728682 C74.2945736,67.2627907 75.2418605,67.4496124 76.1457364,67.7395349" id="Stroke-3" stroke="#FFFFFF" stroke-width="2" stroke-linecap="round" stroke-linejoin="round" sketch:type="MSShapeGroup"></path>
            </g>
        </g>
    </g>
</svg>