<?xml version="1.0" encoding="UTF-8"?>
<svg width="100px" height="100px" viewBox="0 0 100 100" version="1.1" xmlns="http://www.w3.org/2000/svg" xmlns:xlink="http://www.w3.org/1999/xlink" xmlns:sketch="http://www.bohemiancoding.com/sketch/ns">
    <!-- Generator: Sketch 3.3.3 (12081) - http://www.bohemiancoding.com/sketch -->
    <title>btn_wordpress</title>
    <desc>Created with Sketch.</desc>
    <defs></defs>
    <g id="Welcome" stroke="none" stroke-width="1" fill="none" fill-rule="evenodd" sketch:type="MSPage">
        <g id="Desktop-Copy" sketch:type="MSArtboardGroup" transform="translate(-797.000000, -4192.000000)">
            <g id="btn_wordpress" sketch:type="MSLayerGroup" transform="translate(797.000000, 4192.000000)">
                <path d="M99.2715385,49.8107692 C99.2715385,77.1076923 77.1430769,99.2361538 49.8461538,99.2361538 C22.5484615,99.2361538 0.42,77.1076923 0.42,49.8107692 C0.42,22.5130769 22.5484615,0.384615385 49.8461538,0.384615385 C77.1430769,0.384615385 99.2715385,22.5130769 99.2715385,49.8107692" id="Fill-1" fill="#00A7DA" sketch:type="MSShapeGroup"></path>
                <path d="M24.7953846,39.5323077 C27.8676923,37.9169231 32.3130769,56.1930769 32.9684615,58.4607692 C34.8507692,64.9753846 37.0546154,71.3676923 39.6007692,77.6530769 C40.0138462,78.6723077 41.6884615,78.2269231 41.27,77.1930769 C37.6676923,68.3030769 35.1015385,59.1823077 32.3407692,50.0153846 C31.4238462,46.97 29.3769231,35.1707692 23.9215385,38.0376923 C22.9353846,38.5561538 23.8092308,40.05 24.7953846,39.5323077" id="Fill-2" fill="#FFFFFF" sketch:type="MSShapeGroup"></path>
                <path d="M38.9953846,76.4361538 C39.1546154,78.7276923 41.5869231,79.1438462 43.0507692,77.5907692 C44.7653846,75.7730769 45.6461538,72.3484615 46.6730769,70.0753846 C48.1153846,66.8823077 49.5576923,63.6884615 51,60.4953846 C51.4553846,59.4884615 49.9638462,58.6076923 49.5053846,59.6223077 C48.1530769,62.6161538 46.8007692,65.6092308 45.4484615,68.6030769 C44.8176923,70 44.1869231,71.3969231 43.5553846,72.7938462 C43.1946154,73.5923077 42.8338462,74.3907692 42.4738462,75.1892308 C42.2838462,76.0584615 41.7007692,76.4738462 40.7261538,76.4361538 C40.65,75.3307692 38.9184615,75.3223077 38.9953846,76.4361538" id="Fill-3" fill="#FFFFFF" sketch:type="MSShapeGroup"></path>
                <path d="M49.3053846,60.3507692 C50.8076923,64.2892308 52.3576923,68.2076923 53.9730769,72.1007692 C54.7792308,74.0446154 55.3923077,77.6430769 57.6638462,78.2207692 C58.7438462,78.4953846 59.2038462,76.8261538 58.1238462,76.5515385 C56.5292308,76.1461538 54.9053846,69.8669231 54.2046154,68.1307692 C53.0992308,65.3953846 52.0261538,62.6476923 50.9746154,59.8907692 C50.5815385,58.8607692 48.9076923,59.3076923 49.3053846,60.3507692" id="Fill-4" fill="#FFFFFF" sketch:type="MSShapeGroup"></path>
                <path d="M38.4484615,38.0553846 C35.8061538,39.9130769 37.9107692,44.2438462 38.4630769,46.6738462 C39.82,52.65 41.1776923,58.6261538 42.5353846,64.6023077 C42.7823077,65.6876923 44.4507692,65.2284615 44.2046154,64.1423077 C43.2815385,60.0784615 42.3584615,56.0146154 41.4346154,51.9507692 C41.0453846,50.2346154 37.7807692,40.6338462 39.3223077,39.5492308 C40.2269231,38.9138462 39.3630769,37.4123077 38.4484615,38.0553846" id="Fill-5" fill="#FFFFFF" sketch:type="MSShapeGroup"></path>
                <path d="M44.5515385,64.6476923 C46.1415385,61.2230769 47.6161538,57.7515385 48.9776923,54.23 C49.38,53.1907692 47.7069231,52.74 47.3092308,53.77 C46.0007692,57.1515385 44.5838462,60.4853846 43.0569231,63.7746154 C42.5907692,64.7784615 44.0823077,65.6584615 44.5515385,64.6476923" id="Fill-6" fill="#FFFFFF" sketch:type="MSShapeGroup"></path>
                <path d="M58.7892308,37.7523077 C54.9561538,37.1853846 53.1592308,38.6738462 53.9238462,42.5346154 C55.4076923,50.0269231 57.49,57.4392308 59.6838462,64.75 C60.0030769,65.8138462 61.6738462,65.3607692 61.3530769,64.29 C60.1461538,60.27 59.01,56.2315385 57.9723077,52.1646154 C57.4838462,50.2507692 57.0153846,48.3323077 56.5676923,46.4092308 C56.1484615,44.6130769 53.8038462,38.7523077 58.3292308,39.4215385 C59.4184615,39.5823077 59.8892308,37.9153846 58.7892308,37.7523077" id="Fill-7" fill="#FFFFFF" sketch:type="MSShapeGroup"></path>
                <path d="M61.4607692,65.1884615 C62.8923077,61.6915385 64.3238462,58.1953846 65.7553846,54.6984615 C66.8307692,52.0730769 68.3807692,49.2530769 68.1392308,46.3230769 C67.9669231,44.24 66.88,42.4138462 65.4869231,40.9076923 C64.2523077,39.5730769 62.5746154,38.7361538 62.0676923,36.7984615 C61.0369231,32.8576923 64.8776923,30.46 68.2046154,30.1976923 C69.3076923,30.1107692 69.3169231,28.3792308 68.2046154,28.4669231 C63.2123077,28.86 57.9269231,33.5169231 61.0630769,38.8176923 C61.7730769,40.0169231 62.9153846,40.7476923 63.8607692,41.7384615 C66.4815385,44.4876923 66.7484615,47.4523077 65.4207692,50.9592308 C63.6676923,55.5915385 61.6684615,60.1446154 59.7915385,64.7284615 C59.37,65.7584615 61.0438462,66.2069231 61.4607692,65.1884615" id="Fill-8" fill="#FFFFFF" sketch:type="MSShapeGroup"></path>
                <path d="M23.9276923,37.1130769 C25.6269231,37.1738462 26.9461538,37.5792308 28.6561538,37.5630769 C29.8769231,37.5515385 31.0976923,37.5807692 32.3169231,37.6192308 C33.6184615,37.6607692 37.5592308,38.3561538 38.1753846,37.5476923 C37.5007692,38.4338462 39.0030769,39.2969231 39.6692308,38.4215385 C42.1984615,35.1 29.7730769,35.8223077 28.6561538,35.8323077 C27.2092308,35.8461538 23.9315385,35.3507692 23.0384615,36.9692308 C22.5707692,37.8153846 22.9169231,38.8076923 23.9276923,38.8438462 C25.0415385,38.8838462 25.04,37.1530769 23.9276923,37.1130769" id="Fill-9" fill="#FFFFFF" sketch:type="MSShapeGroup"></path>
                <path d="M41.5723077,39.4423077 C44.1323077,39.8338462 44.8930769,44.9661538 45.4761538,46.8692308 C46.1569231,49.0892308 46.8369231,51.3084615 47.5176923,53.5276923 C47.8430769,54.5892308 49.5146154,54.1369231 49.1869231,53.0676923 C48.0876923,49.4823077 47.0038462,45.8923077 45.8892308,42.3123077 C45.22,40.1630769 44.4938462,38.15 42.0323077,37.7730769 C40.9423077,37.6069231 40.4723077,39.2738462 41.5723077,39.4423077" id="Fill-10" fill="#FFFFFF" sketch:type="MSShapeGroup"></path>
                <path d="M42.0707692,38.6330769 C42.3553846,38.4123077 42.29,38.1330769 42.4692308,37.9084615 C43.1676923,37.0330769 44.9584615,37.43 46.3376923,37.4761538 C47.6461538,37.52 57.0292308,38.6207692 57.5153846,37.5561538 C57.0561538,38.5623077 58.5476923,39.4430769 59.01,38.43 C60.6276923,34.89 52.3876923,35.9492308 50.8707692,35.8976923 C49.1438462,35.84 47.4169231,35.7815385 45.69,35.7238462 C44.6615385,35.6892308 42.73,35.2807692 41.7769231,35.81 C41.0661538,36.2046154 40.6976923,37.5246154 40.8469231,37.4092308 C39.9669231,38.09 41.2,39.3069231 42.0707692,38.6330769" id="Fill-11" fill="#FFFFFF" sketch:type="MSShapeGroup"></path>
                <path d="M67.4446154,30.4615385 C76.1784615,29.1253846 73.1546154,41.7592308 72.0430769,46.0230769 C70.8915385,50.4384615 69.3876923,54.7361538 67.6284615,58.9446154 C67.1992308,59.9707692 68.8730769,60.4192308 69.2969231,59.4046154 C72.0876923,52.7292308 75.3692308,44.7084615 75.3353846,37.3476923 C75.3130769,32.5407692 72.1723077,27.9992308 66.9838462,28.7930769 C65.8869231,28.9607692 66.3530769,30.6292308 67.4446154,30.4615385" id="Fill-12" fill="#FFFFFF" sketch:type="MSShapeGroup"></path>
                <path d="M58.0123077,78.36 C61.3938462,77.5807692 62.6353846,74.3153846 63.9992308,71.4453846 C65.9423077,67.3561538 67.7130769,63.1915385 69.3630769,58.9761538 C69.7692308,57.9384615 68.0961538,57.4892308 67.6938462,58.5161538 C66.4230769,61.7630769 65.0823077,64.98 63.6323077,68.1515385 C62.3292308,71.0023077 60.9684615,75.9038462 57.5515385,76.6907692 C56.4669231,76.9407692 56.9261538,78.61 58.0123077,78.36" id="Fill-13" fill="#FFFFFF" sketch:type="MSShapeGroup"></path>
                <path d="M70.8623077,30.1423077 C70.0446154,30.69 69.2276923,31.2369231 68.41,31.7846154 C67.7961538,32.1953846 68.3730769,33.1953846 68.9923077,32.7807692 C69.81,32.2330769 70.6276923,31.6861538 71.4446154,31.1384615 C72.0592308,30.7276923 71.4815385,29.7276923 70.8623077,30.1423077" id="Fill-14" fill="#FFFFFF" sketch:type="MSShapeGroup"></path>
                <path d="M72.4038462,32.0692308 C71.8507692,32.4576923 71.2976923,32.8461538 70.7446154,33.2338462 C70.1415385,33.6576923 70.7169231,34.6584615 71.3269231,34.23 C71.88,33.8423077 72.4330769,33.4538462 72.9861538,33.0653846 C73.5892308,32.6423077 73.0130769,31.6415385 72.4038462,32.0692308" id="Fill-15" fill="#FFFFFF" sketch:type="MSShapeGroup"></path>
                <path d="M73.2723077,34.7 C72.6623077,34.9815385 72.0807692,35.3092308 71.5230769,35.6838462 C70.91,36.0961538 71.4869231,37.0961538 72.1053846,36.68 C72.6630769,36.3053846 73.2446154,35.9776923 73.8546154,35.6961538 C74.5284615,35.3853846 73.9423077,34.3907692 73.2723077,34.7" id="Fill-16" fill="#FFFFFF" sketch:type="MSShapeGroup"></path>
                <path d="M73.1938462,39.7461538 C72.5484615,39.9446154 71.9023077,40.1430769 71.2569231,40.3415385 C70.5492308,40.5584615 70.8507692,41.6730769 71.5638462,41.4538462 C72.2092308,41.2553846 72.8553846,41.0569231 73.5007692,40.8584615 C74.2084615,40.6407692 73.9069231,39.5269231 73.1938462,39.7461538" id="Fill-17" fill="#FFFFFF" sketch:type="MSShapeGroup"></path>
                <path d="M72.7869231,42.0676923 C72.4684615,42.2446154 72.1538462,42.2830769 71.7953846,42.2384615 C71.4861538,42.2 71.2184615,42.5315385 71.2184615,42.8153846 C71.2184615,43.1592308 71.4853846,43.3538462 71.7953846,43.3923077 C72.3476923,43.4615385 72.8861538,43.3338462 73.3692308,43.0638462 C74.0176923,42.7023077 73.4361538,41.7046154 72.7869231,42.0676923" id="Fill-18" fill="#FFFFFF" sketch:type="MSShapeGroup"></path>
                <path d="M72.8207692,44.5515385 L71.5384615,44.5515385 C70.7961538,44.5515385 70.7946154,45.7053846 71.5384615,45.7053846 L72.8207692,45.7053846 C73.5630769,45.7053846 73.5638462,44.5515385 72.8207692,44.5515385" id="Fill-19" fill="#FFFFFF" sketch:type="MSShapeGroup"></path>
                <path d="M71.6661538,46.7338462 C71.2661538,46.69 70.8661538,46.7415385 70.4884615,46.8815385 C69.7984615,47.1376923 70.0969231,48.2538462 70.7953846,47.9946154 C71.0946154,47.8830769 71.3484615,47.8530769 71.6661538,47.8876923 C71.9761538,47.9215385 72.2430769,47.5984615 72.2430769,47.3107692 C72.2430769,46.9707692 71.9776923,46.7684615 71.6661538,46.7338462" id="Fill-20" fill="#FFFFFF" sketch:type="MSShapeGroup"></path>
                <path d="M71.1538462,48.91 L70.3846154,48.91 C69.6423077,48.91 69.6407692,50.0638462 70.3846154,50.0638462 L71.1538462,50.0638462 C71.8961538,50.0638462 71.8976923,48.91 71.1538462,48.91" id="Fill-21" fill="#FFFFFF" sketch:type="MSShapeGroup"></path>
                <path d="M70,52.7561538 C70.7423077,52.7561538 70.7438462,51.6023077 70,51.6023077 C69.2576923,51.6023077 69.2561538,52.7561538 70,52.7561538" id="Fill-22" fill="#FFFFFF" sketch:type="MSShapeGroup"></path>
                <path d="M69.7669231,54.4546154 C69.2638462,54.3769231 68.7869231,54.3892308 68.2992308,54.5453846 C67.5946154,54.7707692 67.8953846,55.8853846 68.6053846,55.6584615 C68.8876923,55.5676923 69.1638462,55.5215385 69.46,55.5669231 C69.77,55.6153846 70.0769231,55.4884615 70.17,55.1646154 C70.2476923,54.8915385 70.0746154,54.5023077 69.7669231,54.4546154" id="Fill-23" fill="#FFFFFF" sketch:type="MSShapeGroup"></path>
                <path d="M68.0769231,56.7307692 L67.0515385,56.7307692 C66.3092308,56.7307692 66.3076923,57.8846154 67.0515385,57.8846154 L68.0769231,57.8846154 C68.8192308,57.8846154 68.8207692,56.7307692 68.0769231,56.7307692" id="Fill-24" fill="#FFFFFF" sketch:type="MSShapeGroup"></path>
                <path d="M67.1792308,59.2946154 L66.0253846,59.2946154 C65.2830769,59.2946154 65.2823077,60.4484615 66.0253846,60.4484615 L67.1792308,60.4484615 C67.9223077,60.4484615 67.9230769,59.2946154 67.1792308,59.2946154" id="Fill-25" fill="#FFFFFF" sketch:type="MSShapeGroup"></path>
                <path d="M65.4953846,62.5515385 C65.0638462,62.6638462 64.6323077,62.7753846 64.2007692,62.8876923 C63.4830769,63.0738462 63.7876923,64.1869231 64.5076923,64 C64.9392308,63.8884615 65.3707692,63.7761538 65.8023077,63.6638462 C66.5207692,63.4776923 66.2161538,62.3646154 65.4953846,62.5515385" id="Fill-26" fill="#FFFFFF" sketch:type="MSShapeGroup"></path>
                <path d="M65,65.4484615 L63.8461538,65.4484615 C63.1038462,65.4484615 63.1023077,66.6023077 63.8461538,66.6023077 L65,66.6023077 C65.7423077,66.6023077 65.7438462,65.4484615 65,65.4484615" id="Fill-27" fill="#FFFFFF" sketch:type="MSShapeGroup"></path>
                <path d="M63.3276923,68.0161538 C62.9461538,68.2192308 62.5569231,68.3884615 62.1476923,68.5253846 C61.4469231,68.7592308 61.7469231,69.8738462 62.4546154,69.6376923 C62.9561538,69.47 63.4423077,69.2615385 63.91,69.0123077 C64.5653846,68.6630769 63.9830769,67.6669231 63.3276923,68.0161538" id="Fill-28" fill="#FFFFFF" sketch:type="MSShapeGroup"></path>
                <path d="M62.5846154,70.8738462 C61.88,70.7315385 61.2307692,70.8146154 60.5807692,71.1184615 C59.9092308,71.4330769 60.4946154,72.4284615 61.1638462,72.1146154 C61.5130769,71.9515385 61.9007692,71.9107692 62.2776923,71.9869231 C63.0030769,72.1338462 63.3130769,71.0223077 62.5846154,70.8738462" id="Fill-29" fill="#FFFFFF" sketch:type="MSShapeGroup"></path>
                <path d="M61.1253846,73.52 C60.5861538,73.5969231 60.0823077,73.7723077 59.6,74.0246154 C58.9423077,74.3692308 59.5246154,75.3653846 60.1823077,75.0215385 C60.5776923,74.8146154 60.9915385,74.6953846 61.4323077,74.6323077 C61.74,74.5884615 61.9115385,74.1953846 61.8353846,73.9223077 C61.7423077,73.5915385 61.4361538,73.4753846 61.1253846,73.52" id="Fill-30" fill="#FFFFFF" sketch:type="MSShapeGroup"></path>
            </g>
        </g>
    </g>
</svg>