<?xml version="1.0" encoding="UTF-8"?>
<svg width="100px" height="100px" viewBox="0 0 100 100" version="1.1" xmlns="http://www.w3.org/2000/svg" xmlns:xlink="http://www.w3.org/1999/xlink" xmlns:sketch="http://www.bohemiancoding.com/sketch/ns">
    <!-- Generator: Sketch 3.3.3 (12081) - http://www.bohemiancoding.com/sketch -->
    <title>btn_linkedin</title>
    <desc>Created with Sketch.</desc>
    <defs></defs>
    <g id="Welcome" stroke="none" stroke-width="1" fill="none" fill-rule="evenodd" sketch:type="MSPage">
        <g id="Desktop-Copy" sketch:type="MSArtboardGroup" transform="translate(-413.000000, -4192.000000)">
            <g id="btn_linkedin" sketch:type="MSLayerGroup" transform="translate(413.000000, 4192.000000)">
                <path d="M99.8937984,50.0984496 C99.8937984,77.6069767 77.5930233,99.9069767 50.0844961,99.9069767 C22.5751938,99.9069767 0.275193798,77.6069767 0.275193798,50.0984496 C0.275193798,22.5891473 22.5751938,0.289147287 50.0844961,0.289147287 C77.5930233,0.289147287 99.8937984,22.5891473 99.8937984,50.0984496" id="Fill-1" fill="#197BB4" sketch:type="MSShapeGroup"></path>
                <path d="M26.744186,39.9224806 L39.9224806,39.9224806 L39.9224806,76.3565891 L26.744186,76.3565891 L26.744186,39.9224806 Z M43.7984496,40.6976744 L43.7984496,76.3565891 L52.8697674,76.3565891 C52.8697674,76.3565891 49.348062,51.1147287 56.6891473,51.2348837 C64.0333333,51.3542636 62.4666667,76.3565891 62.4666667,76.3565891 L72.1937984,76.3565891 C72.1937984,76.3565891 80.2325581,30.748062 51.5503876,41.8217054 L51.5503876,40.6976744 L43.7984496,40.6976744 L43.7984496,40.6976744 Z M27.3945736,29.7844961 C27.3945736,26.3883721 30.1472868,23.6364341 33.544186,23.6364341 C36.9418605,23.6364341 39.6914729,26.3883721 39.6914729,29.7844961 C39.6914729,33.1806202 36.9418605,35.9333333 33.544186,35.9333333 C30.1472868,35.9333333 27.3945736,33.1806202 27.3945736,29.7844961 L27.3945736,29.7844961 Z" id="Stroke-2" stroke="#FFFFFF" stroke-width="3" stroke-linecap="round" stroke-linejoin="round" sketch:type="MSShapeGroup"></path>
                <path d="M35.7713178,72.9914729 C36.9930233,73.2379845 38.2565891,73.4263566 39.5054264,73.4310078 M35.7713178,70.4108527 C36.9930233,70.6573643 38.2565891,70.8457364 39.5054264,70.8503876 M35.7713178,67.8310078 C36.9930233,68.0775194 38.2565891,68.2658915 39.5054264,68.2705426 M35.7713178,65.2503876 C36.9930233,65.4968992 38.2565891,65.6852713 39.5054264,65.6899225 M35.7713178,62.6705426 C36.9930233,62.9170543 38.2565891,63.1054264 39.5054264,63.1100775 M35.7713178,60.0899225 C36.9930233,60.3364341 38.2565891,60.5248062 39.5054264,60.5294574 M35.7713178,57.5100775 C36.9930233,57.755814 38.2565891,57.9449612 39.5054264,57.9496124 M35.7713178,54.9294574 C36.9930233,55.175969 38.2565891,55.3643411 39.5054264,55.3689922 M35.7713178,52.3496124 C36.9930233,52.5953488 38.2565891,52.7837209 39.5054264,52.7891473 M35.7713178,49.7689922 C36.9930233,50.0155039 38.2565891,50.203876 39.5054264,50.2085271 M35.7713178,47.1891473 C36.9930233,47.4348837 38.2565891,47.6232558 39.5054264,47.627907 M35.7713178,44.6085271 C36.9930233,44.8550388 38.2565891,45.0434109 39.5054264,45.048062 M35.7713178,42.027907 C36.9930233,42.2744186 38.2565891,42.4627907 39.5054264,42.4674419 M30.1697674,31.1449612 C31.1829457,32.3821705 33.3255814,33.0263566 34.672093,31.9139535 M33.3542636,26.5317829 C34.6379845,26.344186 36.0186047,26.8015504 36.5395349,28.0689922 M69.379845,74.3093023 C69.6503876,74.2930233 71.8937984,74.3612403 72.2356589,73.7604651 M69.6,71.8930233 C70.5162791,71.8790698 71.4341085,71.9302326 72.3457364,72.0031008 M69.7674419,70.5426357 L72.0930233,70.5426357 M69.379845,67.3899225 C69.9131783,67.1434109 71.4232558,67.0093023 72.3457364,66.9503876 M69.6,64.2046512 C70.6193798,64.0953488 71.6449612,63.9542636 72.6751938,63.9852713 M69.1604651,61.7883721 C70.0984496,61.4875969 71.0968992,61.3906977 72.0162791,61.1294574 M69.0503876,58.9325581 C70.0658915,58.7666667 71.1410853,58.6434109 72.1255814,58.4930233 M69.0503876,56.5162791 C69.9852713,56.4209302 70.9108527,56.2651163 71.7968992,55.9674419 M69.1604651,54.2100775 C70.0007752,54.0775194 70.8147287,53.7914729 71.5767442,53.4410853 M68.6116279,51.9031008 C69.5054264,51.8465116 70.3906977,51.5488372 70.9178295,50.9147287 M68.0620155,49.9263566 C68.755814,49.7341085 69.427907,49.3224806 69.8193798,48.827907 M67.4031008,47.5100775 C67.9635659,46.7751938 68.6062016,46.0596899 69.2705426,45.4232558 M65.8658915,44.8736434 C66.1534884,44.179845 66.5031008,43.4418605 66.8542636,42.7868217 M63.9984496,43.9953488 C64.1356589,43.3968992 64.2883721,42.7465116 64.4372093,42.127907 M61.9116279,42.2379845 C61.879845,41.6821705 61.9162791,41.1310078 62.0209302,40.5906977 M60.1534884,42.127907 C60.1868217,41.5751938 60.1503876,41.0232558 60.044186,40.4806202" id="Stroke-3" stroke="#FFFFFF" stroke-width="2" stroke-linecap="round" stroke-linejoin="round" sketch:type="MSShapeGroup"></path>
            </g>
        </g>
    </g>
</svg>