<?xml version="1.0" encoding="UTF-8"?>
<svg width="100px" height="101px" viewBox="0 0 100 101" version="1.1" xmlns="http://www.w3.org/2000/svg" xmlns:xlink="http://www.w3.org/1999/xlink" xmlns:sketch="http://www.bohemiancoding.com/sketch/ns">
    <!-- Generator: Sketch 3.3.3 (12081) - http://www.bohemiancoding.com/sketch -->
    <title>btn_github</title>
    <desc>Created with Sketch.</desc>
    <defs></defs>
    <g id="Welcome" stroke="none" stroke-width="1" fill="none" fill-rule="evenodd" sketch:type="MSPage">
        <g id="Desktop-Copy" sketch:type="MSArtboardGroup" transform="translate(-982.000000, -4191.000000)">
            <g id="btn_github" sketch:type="MSLayerGroup" transform="translate(982.000000, 4191.000000)">
                <path d="M99.9914729,50.2426357 C99.9914729,77.7511628 77.6906977,100.051163 50.1821705,100.051163 C22.6736434,100.051163 0.372868217,77.7511628 0.372868217,50.2426357 C0.372868217,22.7333333 22.6736434,0.433333333 50.1821705,0.433333333 C77.6906977,0.433333333 99.9914729,22.7333333 99.9914729,50.2426357" id="Fill-1" fill="#800080" sketch:type="MSShapeGroup"></path>
                <path d="M70.9945736,34.3193798 C71.6868217,31.3069767 72.0860465,28.2736434 70.5589147,25.4162791 C70.4953488,25.2968992 70.4170543,25.2062016 70.3310078,25.1387597 C70.3775194,24.6186047 69.9372093,23.9829457 69.2418605,24.079845 C65.8612403,24.5496124 62.8263566,26.0782946 60.3953488,28.4550388 C54.8356589,26.6302326 49.0930233,26.5906977 43.5186047,28.3271318 C42.875969,26.8782946 41.2418605,26.2682171 39.8604651,25.6310078 C38.0891473,24.8139535 36.2821705,24.2821705 34.3186047,24.4069767 C33.9,24.4341085 33.6379845,24.696124 33.5325581,25.0100775 C33.4387597,25.0992248 33.3589147,25.2124031 33.3054264,25.355814 C32.2775194,28.1178295 32.1821705,31.0317829 32.9813953,33.848062 C32.9635659,33.8682171 32.9449612,33.8837209 32.927907,33.9054264 C29.055814,38.9542636 29.2612403,46.6472868 31.5751938,52.3643411 C33.727907,57.6821705 38.9418605,59.9085271 44.0767442,61.5054264 C44.0581395,61.555814 44.0379845,61.6062016 44.0232558,61.6565891 C43.7992248,62.424031 43.6596899,63.227907 43.5023256,64.0170543 C43.4325581,64.0418605 43.3620155,64.0736434 43.2914729,64.1209302 C38.5767442,67.2984496 35.6627907,61.3767442 32.4031008,59.0658915 C30.6286822,57.8077519 28.7155039,57.4031008 26.624031,57.9868217 C26.3356589,58.0666667 26.1596899,58.2465116 26.0736434,58.4604651 C25.5426357,58.7589147 25.4689922,59.8062016 26.2434109,60.1310078 C30.344186,61.8534884 29.6108527,67.9713178 33.1596899,70.5271318 C35.8472868,72.4635659 39.1573643,72.420155 42.2775194,71.8612403 C42.3713178,72.8565891 42.4511628,73.8728682 42.3984496,74.8596899 C42.3108527,76.5170543 41.6403101,77.2232558 40.275969,78.0821705 C39.5341085,78.5488372 39.9108527,79.572093 40.5658915,79.7077519 C40.6356589,79.844186 40.7542636,79.9658915 40.9372093,80.0534884 C47.8658915,83.3914729 55.4651163,83.3937984 62.396124,80.0589147 C62.8782946,79.8271318 62.9263566,79.3643411 62.7395349,78.9953488 C62.9310078,78.4635659 62.6806202,77.7868217 61.9705426,77.855814 C60.5852713,77.9914729 61.7085271,72.3813953 61.772093,71.7162791 C61.9217054,70.1534884 62.0015504,68.5775194 61.7736434,67.0170543 C61.4643411,64.9007752 60.6674419,63.0379845 59.2945736,61.5093023 C65.5364341,61 70.3813953,58.7868217 73.1348837,52.4286822 C75.7387597,46.4186047 75.2620155,39.3837209 70.9945736,34.3193798 L70.9945736,34.3193798 Z M72.0116279,50.5217054 C71.9488372,50.4 71.8418605,50.2968992 71.6744186,50.2449612 C70.7976744,49.9744186 69.920155,49.9286822 69.0147287,50.0503876 C68.7015504,50.0930233 68.5364341,50.4914729 68.6085271,50.7658915 C68.6976744,51.1023256 69.0139535,51.2139535 69.324031,51.172093 C70.0155039,51.0782946 70.7015504,51.1612403 71.3651163,51.3666667 C71.4899225,51.4046512 71.596124,51.3922481 71.6930233,51.3612403 C71.1317829,52.751938 70.4503876,53.9341085 69.6573643,54.9286822 C69.6255814,54.8031008 69.5596899,54.6829457 69.4310078,54.5906977 C68.8844961,54.1992248 68.3379845,53.8077519 67.7906977,53.4170543 C67.1813953,52.9806202 66.6,53.9891473 67.203876,54.4209302 C67.7503876,54.8124031 68.2976744,55.2031008 68.844186,55.5945736 C68.9015504,55.6356589 68.9573643,55.6527132 69.0131783,55.6697674 C68.5116279,56.2023256 67.9728682,56.6744186 67.3984496,57.0899225 C66.8813953,56.5015504 66.3651163,55.9139535 65.848062,55.3255814 C65.3527132,54.7620155 64.5333333,55.5875969 65.0255814,56.1472868 C65.4891473,56.6751938 65.9527132,57.2031008 66.4170543,57.7302326 C65.727907,58.1310078 65.0015504,58.472093 64.2317829,58.748062 C63.755814,58.4085271 63.2790698,58.0682171 62.8031008,57.7286822 C62.1922481,57.2937984 61.6108527,58.3015504 62.2155039,58.7333333 C62.420155,58.8790698 62.6248062,59.0248062 62.8294574,59.1705426 C61.1317829,59.6093023 59.2782946,59.824031 57.2914729,59.8782946 C56.3922481,59.9031008 56.2248062,61.020155 56.7713178,61.448062 C56.8193798,61.5341085 56.8837209,61.6178295 56.9782946,61.6945736 C57.8565891,62.4131783 58.4976744,63.2116279 58.9689922,64.0643411 C57.9968992,64.0868217 57.0527132,64.2697674 56.1496124,64.6372093 C55.4658915,64.9162791 55.7651163,66.0410853 56.4589147,65.7589147 C57.3069767,65.4131783 58.172093,65.2294574 59.0883721,65.220155 C59.2379845,65.2186047 59.3496124,65.1627907 59.4395349,65.0875969 C59.7007752,65.772093 59.8775194,66.4821705 59.979845,67.2147287 C59.2891473,66.9410853 58.4868217,66.9891473 57.8472868,67.427907 C57.2341085,67.848062 57.8147287,68.8565891 58.4341085,68.4317829 C58.9023256,68.1108527 59.5,68.1155039 59.9217054,68.5178295 C59.9767442,68.5713178 60.0364341,68.6023256 60.096124,68.6286822 C60.1155039,69.2 60.1077519,69.7775194 60.0767442,70.3604651 C59.3410853,70.1131783 58.5844961,70.1426357 57.8790698,70.5255814 C57.2209302,70.8829457 57.8077519,71.8875969 58.4658915,71.5302326 C58.8581395,71.3170543 59.3364341,71.2674419 59.7527132,71.4488372 C59.8310078,71.4829457 59.9124031,71.5015504 59.9930233,71.5100775 C59.8627907,72.9604651 59.6534884,74.4193798 59.5170543,75.8255814 C59.4945736,76.0534884 59.479845,76.2813953 59.472093,76.5069767 C58.875969,76.5263566 58.279845,76.5457364 57.6837209,76.5643411 C56.9372093,76.5883721 56.9341085,77.7511628 57.6837209,77.7271318 C58.2984496,77.7077519 58.9139535,77.6875969 59.5286822,77.6682171 C59.6193798,78.2635659 59.8255814,78.779845 60.2054264,79.1325581 C54.4,81.5085271 48.0899225,81.3860465 42.3356589,78.779845 C43.0193798,78.2472868 43.6131783,77.6147287 43.9015504,76.7728682 C44.4914729,75.0511628 44.1131783,72.8348837 43.9457364,71.0643411 C43.944186,71.0465116 43.9341085,71.0348837 43.9317829,71.0178295 C44.0046512,70.4751938 43.5635659,69.824031 42.8527132,69.975969 C40.2813953,70.5271318 37.3875969,70.8806202 34.9565891,69.5945736 C32.548062,68.320155 31.9333333,65.9294574 31.0674419,63.5736434 C30.4449612,61.8813953 29.6813953,60.5054264 28.4434109,59.4922481 C32.2744186,59.5007752 34.3821705,64.355814 37.5387597,66.0527132 C39.7837209,67.2604651 42.0868217,67.0325581 44.1713178,65.6271318 C44.203876,65.6054264 44.2294574,65.579845 44.2581395,65.555814 C44.6248062,65.5852713 44.9899225,65.403876 45.0914729,64.9341085 C45.2170543,64.3550388 45.3418605,63.7751938 45.4674419,63.196124 C45.5209302,62.948062 45.5728682,62.6984496 45.6286822,62.4511628 C45.6496124,62.3379845 45.6782946,62.2271318 45.7085271,62.1162791 C46.5542636,62.0620155 46.5775194,60.7782946 45.8007752,60.4434109 C45.703876,60.2728682 45.544186,60.1302326 45.303876,60.0581395 C40.0139535,58.4666667 34.703876,56.4550388 32.8372093,50.720155 C31.1612403,45.572093 31.0317829,39.2217054 34.4341085,34.7852713 C34.4457364,34.7705426 34.451938,34.7550388 34.4627907,34.7395349 C34.7426357,34.5620155 34.9170543,34.2403101 34.7837209,33.824031 C33.9635659,31.2488372 34.0093023,28.6852713 34.8775194,26.1527132 C36.1511628,26.1589147 37.3333333,26.444186 38.5348837,26.948062 C39.351938,27.2906977 41.572093,28.0317829 41.9155039,28.9488372 C42.0449612,29.2953488 42.3178295,29.4736434 42.6100775,29.5224806 C42.7224806,29.9472868 43.1046512,30.2868217 43.644186,30.1116279 C49.096124,28.3410853 54.5984496,28.3620155 60.0341085,30.1689922 C60.2860465,30.2527132 60.5015504,30.220155 60.6736434,30.1217054 C60.9186047,30.1744186 61.1875969,30.1178295 61.4193798,29.8837209 C63.5108527,27.7674419 66.0612403,26.4434109 68.9449612,25.8968992 C68.9488372,26.0248062 68.979845,26.1589147 69.0527132,26.296124 C70.4705426,28.9503876 69.8031008,31.8596899 69.1294574,34.6310078 C68.9852713,35.2232558 69.4162791,35.627907 69.8813953,35.7023256 C70.1333333,36.0116279 70.3689922,36.327907 70.5891473,36.6527132 C70.5348837,36.6565891 70.4813953,36.6573643 70.4209302,36.6806202 C69.6364341,36.9860465 68.851938,37.2906977 68.0682171,37.596124 C67.3782946,37.8643411 67.6782946,38.9891473 68.3775194,38.7170543 C69.1612403,38.4124031 69.9457364,38.1069767 70.7302326,37.8023256 C70.9186047,37.7286822 71.027907,37.5891473 71.0806202,37.4333333 C73.3635659,41.3565891 73.520155,46.172093 72.0116279,50.5217054 L72.0116279,50.5217054 Z" id="Fill-2" fill="#FFFFFF" sketch:type="MSShapeGroup"></path>
                <path d="M69.1131783,40.7310078 C68.8224806,40.8565891 68.7627907,41.2767442 68.9046512,41.5263566 C69.0751938,41.8255814 69.4131783,41.8589147 69.7,41.7348837 C70.4062016,41.4294574 71.1124031,41.1232558 71.8186047,40.8178295 C72.1093023,40.6922481 72.1689922,40.272093 72.0271318,40.0224806 C71.8565891,39.7232558 71.5178295,39.6899225 71.2317829,39.8139535 C70.5255814,40.1193798 69.8193798,40.4248062 69.1131783,40.7310078" id="Fill-3" fill="#FFFFFF" sketch:type="MSShapeGroup"></path>
                <path d="M70.2751938,43.7573643 C69.9868217,43.8868217 69.9232558,44.3007752 70.0666667,44.5527132 C70.2356589,44.8496124 70.5775194,44.8891473 70.8620155,44.7612403 C71.2325581,44.5953488 71.6581395,44.5395349 72.0581395,44.6046512 C72.3697674,44.655814 72.679845,44.5232558 72.7728682,44.1984496 C72.8527132,43.9217054 72.6767442,43.5341085 72.3666667,43.4837209 C71.6294574,43.3635659 70.9573643,43.4511628 70.2751938,43.7573643" id="Fill-4" fill="#FFFFFF" sketch:type="MSShapeGroup"></path>
                <path d="M72.2147287,46.9697674 C71.6379845,47.0077519 71.1255814,46.8829457 70.6364341,46.5728682 C70.0031008,46.1713178 69.4186047,47.1775194 70.0496124,47.5775194 C70.696124,47.9868217 71.4503876,48.1829457 72.2147287,48.1325581 C72.9573643,48.0829457 72.9627907,46.920155 72.2147287,46.9697674" id="Fill-5" fill="#FFFFFF" sketch:type="MSShapeGroup"></path>
                <path d="M58.9147287,74.6186047 C59.6899225,74.6186047 59.6899225,73.455814 58.9147287,73.455814 C58.1395349,73.455814 58.1395349,74.6186047 58.9147287,74.6186047" id="Fill-6" fill="#FFFFFF" sketch:type="MSShapeGroup"></path>
            </g>
        </g>
    </g>
</svg>